<svg width="19" height="16" viewBox="0 0 19 16" fill="none" xmlns="http://www.w3.org/2000/svg">
<path d="M12.6572 4.46496C12.2333 4.3028 11.5649 4.06773 11.5649 4.06773L11.6642 4.9615L7.04634 4.61393L8.68492 6.25251L2.22918 7.81729L8.73457 9.77794L6.94703 11.4662L11.6642 11.1186L11.6145 11.9627C11.6145 11.9627 12.2849 11.7327 12.7069 11.5655C13.1188 11.4023 13.3478 11.3051 13.7496 11.1186C14.1429 10.936 14.3668 10.8381 14.7427 10.6221C15.0831 10.4264 15.2648 10.3005 15.5868 10.0759C15.9049 9.85397 16.0878 9.7335 16.3813 9.48001C16.6926 9.21115 16.8629 9.05135 17.1261 8.7352C17.3395 8.4788 17.6226 8.04005 17.6226 8.04005L17.0764 7.29524L16.7785 6.99732C16.7785 6.99732 16.4513 6.63585 16.1827 6.40147C15.8904 6.14649 15.7111 6.02039 15.3882 5.80562C15.0337 5.56986 14.755 5.41456 14.4448 5.25943L13.6503 4.86219C13.3401 4.70707 13.0474 4.61418 12.6572 4.46496Z" fill="url(#paint0_linear_16_506)" stroke="url(#paint1_linear_16_506)"/>
<path d="M14.6931 6.50078C14.3052 6.26808 14.1995 6.2149 13.7993 6.00424C13.3846 5.78596 12.7069 5.5077 12.7069 5.5077L12.7069 5.90493L9.57871 5.75597L10.6214 6.7987L8.9332 7.19593L10.0256 7.69247L7.98978 8.63589L10.6711 9.23174L9.62836 10.2745L12.7566 10.1255L12.7069 10.5724C12.7069 10.5724 13.4156 10.2641 13.8489 10.0262C14.1463 9.86297 14.3067 9.75999 14.5938 9.57932C14.9488 9.35589 15.1687 9.25609 15.4875 8.98347C15.696 8.80525 15.9841 8.48693 15.9841 8.48693L16.4309 8.04005L15.8351 7.4442C15.8351 7.4442 15.4233 7.02056 15.3386 6.94766C15.2318 6.85581 14.9413 6.64974 14.6931 6.50078Z" fill="url(#paint2_linear_16_506)" stroke="url(#paint3_linear_16_506)"/>
<path d="M15.0406 8.43728C15.2305 8.27963 15.4875 7.99039 15.4875 7.99039C15.4875 7.99039 15.1595 7.62321 14.991 7.49385C14.88 7.40872 14.693 7.29524 14.693 7.29524C14.693 7.29524 14.4281 7.12909 14.2462 7.04697C14.0226 6.94607 13.8863 6.91508 13.6503 6.84835C13.4014 6.77796 13.0048 6.69939 13.0048 6.69939C13.0048 6.69939 12.5423 6.60008 12.3097 6.60008C12.077 6.60008 12.0067 6.57031 11.8131 6.69939C11.7447 6.74502 11.7009 6.77477 11.6642 6.84835C11.5648 7.04696 11.4655 7.64281 11.4655 7.64281C11.4655 7.64281 11.4273 8.12939 11.4655 8.43728C11.4975 8.69401 11.5638 8.98138 11.6145 9.08278C11.6652 9.18418 11.7138 9.2814 11.8628 9.33105C12.0117 9.3807 12.2865 9.33105 12.5579 9.33105C12.7906 9.33105 12.9726 9.31055 13.2034 9.28139C13.4835 9.24601 13.6852 9.19683 13.8489 9.13243C14.091 9.0372 14.2195 8.96458 14.4448 8.83451C14.687 8.69468 14.8507 8.59493 15.0406 8.43728Z" fill="#39E6F1" stroke="#39E6F1"/>
<path d="M12.5613 7.22879C12.5613 7.22879 12.5868 7.19302 12.6226 7.16747C12.6584 7.14192 12.8097 7.16052 12.9292 7.16747C13.0375 7.17376 13.2052 7.19813 13.2052 7.19813L13.4505 7.25946C13.5463 7.2834 13.6038 7.29012 13.6958 7.32078C13.7877 7.35144 13.9388 7.44115 13.9694 7.47182L14.0944 7.59673L13.7877 7.53541C13.7877 7.53541 13.6019 7.49187 13.4811 7.47409C13.3503 7.45483 13.2757 7.45344 13.1438 7.44343C12.8928 7.42436 12.5306 7.44343 12.4999 7.41276C12.4464 7.35921 12.5613 7.22879 12.5613 7.22879Z" fill="white" stroke="white" stroke-width="0.5"/>
<defs>
<linearGradient id="paint0_linear_16_506" x1="17.9716" y1="7.93822" x2="0.289852" y2="7.93054" gradientUnits="userSpaceOnUse">
<stop offset="0.0102039" stop-color="white"/>
<stop offset="0.0677083" stop-color="#39E6F1"/>
<stop offset="1" stop-color="#2562FF"/>
</linearGradient>
<linearGradient id="paint1_linear_16_506" x1="18.1998" y1="7.82425" x2="0.28985" y2="7.93053" gradientUnits="userSpaceOnUse">
<stop offset="0.0057145" stop-color="white"/>
<stop offset="0.068468" stop-color="#39E6F1"/>
<stop offset="1" stop-color="#2562FF"/>
</linearGradient>
<linearGradient id="paint2_linear_16_506" x1="16.8308" y1="7.93774" x2="7.13439" y2="7.93352" gradientUnits="userSpaceOnUse">
<stop stop-color="#39E6F1"/>
<stop offset="1" stop-color="#2562FF"/>
</linearGradient>
<linearGradient id="paint3_linear_16_506" x1="16.8308" y1="7.93774" x2="7.36259" y2="7.81954" gradientUnits="userSpaceOnUse">
<stop stop-color="#39E6F1"/>
<stop offset="1" stop-color="#0047FD"/>
</linearGradient>
</defs>
</svg>
