<svg width="90" height="90" viewBox="0 0 90 90" fill="none" xmlns="http://www.w3.org/2000/svg">
<circle cx="44.9999" cy="45" r="45" fill="#DD8444"/>
<circle cx="44.9999" cy="44.7143" r="37.2857" fill="#F7B24A"/>
<path d="M33.5333 48.15C33.4005 48.166 33.2662 48.166 33.1333 48.15H32.9167L32.6667 48.0167L32.4833 47.9167L28.4167 44.5833C28.0962 44.3292 27.8898 43.9581 27.8429 43.5518C27.796 43.1454 27.9125 42.7371 28.1667 42.4167C28.4208 42.0962 28.7919 41.8898 29.1982 41.8429C29.6046 41.796 30.0129 41.9125 30.3333 42.1667L31.6167 43.2167C31.9616 40.5912 33.071 38.1252 34.8068 36.1255C36.5426 34.1258 38.8282 32.6808 41.3791 31.9702C43.93 31.2597 46.6335 31.315 49.1532 32.1293C51.6729 32.9436 53.8974 34.481 55.55 36.55C55.6884 36.7205 55.7918 36.9166 55.8542 37.1272C55.9166 37.3378 55.9368 37.5586 55.9135 37.777C55.8903 37.9953 55.8241 38.207 55.7188 38.3997C55.6136 38.5924 55.4712 38.7625 55.3 38.9C55.1285 39.0375 54.9315 39.1397 54.7203 39.2008C54.5091 39.2618 54.2879 39.2805 54.0695 39.2557C53.8511 39.2309 53.6397 39.1632 53.4476 39.0564C53.2554 38.9495 53.0863 38.8058 52.95 38.6333C51.7076 37.1018 50.0466 35.9648 48.1694 35.3606C46.2922 34.7564 44.2798 34.7112 42.3773 35.2306C40.4749 35.7499 38.7645 36.8113 37.4547 38.2855C36.1448 39.7597 35.2919 41.583 35 43.5333L36.6667 42.1833C36.977 42.0159 37.3364 41.9632 37.6817 42.0344C38.0271 42.1055 38.3363 42.2961 38.5551 42.5726C38.7739 42.8491 38.8883 43.1939 38.8783 43.5463C38.8682 43.8988 38.7343 44.2364 38.5 44.5L34.4333 47.8333C34.3424 47.8898 34.2478 47.9399 34.15 47.9833C33.9891 48.0508 33.8215 48.101 33.65 48.1333L33.5333 48.15ZM61.6667 45.5L57.6 42.1667C57.5034 42.11 57.4032 42.0599 57.3 42.0167L56.8 41.8667H56.6667C56.5338 41.8506 56.3995 41.8506 56.2667 41.8667H56.0333L55.8 42L55.6167 42.1L51.55 45.4333C51.2428 45.6875 51.0491 46.0533 51.0116 46.4502C50.9741 46.8472 51.0958 47.2428 51.35 47.55C51.6042 47.8572 51.97 48.0509 52.3669 48.0884C52.7639 48.1259 53.1595 48.0042 53.4667 47.75L55.1333 46.4C54.8687 48.3825 54.0261 50.2432 52.7107 51.7499C51.3952 53.2566 49.6652 54.3425 47.7366 54.8723C45.8079 55.402 43.7659 55.352 41.8654 54.7286C39.965 54.1052 38.2901 52.9359 37.05 51.3667C36.9137 51.1942 36.7446 51.0504 36.5524 50.9436C36.3603 50.8368 36.1489 50.7691 35.9305 50.7443C35.7121 50.7195 35.4909 50.7381 35.2797 50.7992C35.0685 50.8603 34.8715 50.9625 34.7 51.1C34.5288 51.2375 34.3864 51.4075 34.2812 51.6003C34.1759 51.793 34.1097 52.0046 34.0865 52.223C34.0632 52.4414 34.0834 52.6622 34.1458 52.8728C34.2082 53.0834 34.3116 53.2795 34.45 53.45C36.1026 55.519 38.3271 57.0564 40.8468 57.8707C43.3665 58.685 46.07 58.7403 48.6209 58.0298C51.1718 57.3192 53.4573 55.8742 55.1932 53.8745C56.929 51.8748 58.0384 49.4088 58.3833 46.7833L59.6833 47.85C59.995 48.113 60.3983 48.2414 60.8046 48.2071C61.211 48.1727 61.587 47.9783 61.85 47.6667C62.113 47.355 62.2414 46.9517 62.2071 46.5454C62.1727 46.139 61.9783 45.763 61.6667 45.5Z" fill="#722F2F"/>
</svg>
