<svg width="90" height="90" viewBox="0 0 90 90" fill="none" xmlns="http://www.w3.org/2000/svg">
<circle cx="45" cy="45" r="45" fill="#DD8444"/>
<circle cx="45" cy="44.7143" r="37.2857" fill="#F7B24A"/>
<path fill-rule="evenodd" clip-rule="evenodd" d="M27.3066 50.657C26.8978 51.0504 26.8978 51.7047 27.3066 52.0981L32.8616 57.4434C33.497 58.0547 34.555 57.6045 34.555 56.7229V53.6625H46.8682C47.9899 53.6625 48.8992 52.7532 48.8992 51.6314C48.8992 50.5097 47.9899 49.6004 46.8682 49.6004H34.555V46.0322C34.555 45.1505 33.497 44.7003 32.8616 45.3116L27.3066 50.657Z" fill="#722F2F"/>
<path fill-rule="evenodd" clip-rule="evenodd" d="M62.3678 38.6267C62.7766 39.0201 62.7766 39.6745 62.3678 40.0679L56.8127 45.4132C56.1774 46.0245 55.1194 45.5743 55.1194 44.6926V41.6322H42.8062C41.6845 41.6322 40.7752 40.7229 40.7752 39.6012C40.7752 38.4795 41.6845 37.5701 42.8062 37.5701H55.1194V34.002C55.1194 33.1203 56.1774 32.6701 56.8127 33.2814L62.3678 38.6267Z" fill="#722F2F"/>
</svg>
