<svg width="303" height="331" viewBox="0 0 303 331" fill="none" xmlns="http://www.w3.org/2000/svg">
<path d="M74.8791 204.598L74.8791 127.501C74.8791 127.501 62.7712 125.987 55.1231 127.02C48.7444 127.881 45.123 128.786 39.222 131.356C34.4285 133.444 31.9365 135.098 27.6575 138.102C24.9155 140.027 20.9115 143.403 20.9115 143.403L25.7301 148.221C25.7301 148.221 16.471 152.852 11.2745 156.894C6.96704 160.245 1.15558 166.531 1.15558 166.531C1.15558 166.531 7.02642 172.469 11.2745 175.687C16.5225 179.662 25.7301 184.36 25.7301 184.36L20.9115 188.697C20.9115 188.697 24.8145 192.76 27.6575 194.961C31.7921 198.161 34.4013 199.682 39.222 201.707C45.1133 204.181 48.7708 204.872 55.1231 205.562C62.8023 206.396 74.8791 204.598 74.8791 204.598Z" fill="#FF201B" stroke="#FF201B" stroke-width="0.5"/>
<path d="M74.3972 195.497L74.3972 136.339C74.3972 136.339 65.0591 135.177 59.1606 135.969C54.241 136.63 51.4481 137.325 46.897 139.297C43.2001 140.899 41.2781 142.168 37.978 144.473C35.8632 145.951 32.7752 148.541 32.7752 148.541L36.4915 152.238C36.4915 152.238 29.3505 155.792 25.3427 158.893C22.0206 161.464 17.5386 166.288 17.5386 166.288C17.5386 166.288 22.0664 170.844 25.3427 173.313C29.3902 176.363 36.4915 179.968 36.4915 179.968L32.7752 183.296C32.7752 183.296 35.7854 186.414 37.978 188.103C41.1667 190.558 43.1791 191.726 46.897 193.279C51.4406 195.177 54.2614 195.707 59.1606 196.237C65.0831 196.877 74.3972 195.497 74.3972 195.497Z" fill="#F1B31F" stroke="#F1B31F" stroke-width="0.5"/>
<path d="M74.3972 187.069L74.3972 143.874C74.3972 143.874 69.4908 143.026 66.3915 143.604C63.8067 144.087 62.3392 144.594 59.9479 146.034C58.0055 147.204 56.9957 148.13 55.2617 149.814C54.1505 150.892 52.528 152.783 52.528 152.783L54.4806 155.483C54.4806 155.483 50.7286 158.078 48.6228 160.342C46.8773 162.22 44.5223 165.742 44.5223 165.742C44.5223 165.742 46.9014 169.069 48.6228 170.871C50.7495 173.098 54.4806 175.731 54.4806 175.731L52.528 178.16C52.528 178.16 54.1096 180.437 55.2617 181.67C56.9371 183.463 57.9945 184.315 59.9479 185.45C62.3353 186.836 63.8174 187.223 66.3915 187.609C69.5034 188.077 74.3972 187.069 74.3972 187.069Z" fill="#FCE263" stroke="#FCE263" stroke-width="0.5"/>
<path d="M39.2583 52.9357C42.9629 52.7025 50.8227 55.2783 50.8227 55.2783L50.8227 82.4279C50.8227 82.4279 43.9841 84.2562 40.1849 84.2562C35.5271 84.2562 31.1409 83.5795 29.6212 83.2925C28.1015 83.0055 22.7085 80.9822 21.9486 76.9392C21.1888 72.8961 11.7926 70.3451 11.7926 68.8369C11.7926 67.3286 20.4289 64.2325 21.9486 59.612C22.887 56.7589 27.0637 54.7706 30.1031 53.8994C33.755 52.8526 34.6992 53.2227 39.2583 52.9357Z" fill="#FF201B" stroke="#FF201B" stroke-width="0.5"/>
<path d="M37.3308 56.7905C39.6801 56.596 44.0768 57.5118 44.0768 57.5118L44.0768 80.1619C44.0768 80.1619 39.7401 80.8832 37.3308 80.8832C34.3771 80.8832 32.0305 80.4013 31.0668 80.1619C30.1031 79.9225 26.2482 78.9558 25.7664 75.5828C25.2845 72.2098 19.0204 70.577 19.0204 69.3187C19.0204 68.0604 24.8027 64.982 25.7664 61.1272C26.3614 58.747 29.1393 58.4811 31.0668 57.7542C33.3826 56.8809 34.4397 57.03 37.3308 56.7905Z" fill="#F1B31F" stroke="#F1B31F" stroke-width="0.5"/>
<path d="M39.2583 60.1635C41.0942 59.7509 44.0768 60.1635 44.0768 60.1635V77.5102C44.0768 77.5102 41.0942 77.9227 39.2583 77.5102C36.9578 76.9932 34.9216 75.5827 34.4397 74.619C33.9579 73.6553 33.9579 73.4443 33.9579 72.6916C33.9579 71.9389 28.6575 69.8005 28.6575 68.8368C28.6575 67.8731 33.476 65.9457 33.9579 64.982C34.4397 64.0183 34.1185 63.0545 34.4397 62.5727C34.7609 62.0909 36.9578 60.6804 39.2583 60.1635Z" fill="#FCE263" stroke="#FCE263" stroke-width="0.5"/>
<path d="M73.9517 48.599V89.0746L66.242 87.1472V50.5264L73.9517 48.599Z" fill="#39537C"/>
<path d="M44.0768 57.2723L44.0768 80.4012L66.242 87.1472V50.5264L44.0768 57.2723Z" fill="#6388BB"/>
<path d="M39.2219 247.604C42.9266 247.371 50.7864 249.947 50.7864 249.947L50.7864 277.096C50.7864 277.096 43.9478 278.925 40.1486 278.925C35.4908 278.925 31.1046 278.248 29.5849 277.961C28.0652 277.674 22.6721 275.651 21.9123 271.608C21.1525 267.565 11.7563 265.014 11.7563 263.505C11.7563 261.997 20.3926 258.901 21.9123 254.28C22.8507 251.427 27.0274 249.439 30.0667 248.568C33.7187 247.521 34.6629 247.891 39.2219 247.604Z" fill="#FF201B" stroke="#FF201B" stroke-width="0.5"/>
<path d="M37.2945 251.459C39.6438 251.265 44.0405 252.18 44.0405 252.18L44.0405 274.83C44.0405 274.83 39.7038 275.552 37.2945 275.552C34.3408 275.552 31.9941 275.07 31.0304 274.83C30.0667 274.591 26.2119 273.624 25.7301 270.251C25.2482 266.878 18.9841 265.246 18.9841 263.987C18.9841 262.729 24.7664 259.651 25.7301 255.796C26.3251 253.415 29.103 253.15 31.0304 252.423C33.3463 251.549 34.4034 251.698 37.2945 251.459Z" fill="#F1B31F" stroke="#F1B31F" stroke-width="0.5"/>
<path d="M39.2219 254.832C41.0579 254.419 44.0405 254.832 44.0405 254.832V272.179C44.0405 272.179 41.0579 272.591 39.2219 272.179C36.9215 271.662 34.8853 270.251 34.4034 269.288C33.9216 268.324 33.9216 268.113 33.9216 267.36C33.9216 266.608 28.6212 264.469 28.6212 263.505C28.6212 262.542 33.4397 260.614 33.9216 259.651C34.4034 258.687 34.0822 257.723 34.4034 257.241C34.7246 256.759 36.9215 255.349 39.2219 254.832Z" fill="#FCE263" stroke="#FCE263" stroke-width="0.5"/>
<path d="M73.9153 243.268V283.743L66.2057 281.816V245.195L73.9153 243.268Z" fill="#39537C"/>
<path d="M44.0405 251.941L44.0405 275.07L66.2057 281.816V245.195L44.0405 251.941Z" fill="#6388BB"/>
<path fill-rule="evenodd" clip-rule="evenodd" d="M302.885 165.914C302.885 162.3 301.272 158.686 298.048 156.286L92.3559 3.23867C84.4395 -2.6517 73.1926 2.99859 73.1926 12.8661L73.1926 165.914L302.885 165.914Z" fill="#4C6DA0"/>
<path fill-rule="evenodd" clip-rule="evenodd" d="M302.983 165.914C302.983 169.528 301.371 173.142 298.147 175.541L92.4545 328.589C84.538 334.479 73.2912 328.829 73.2912 318.961L73.2912 165.914L302.983 165.914Z" fill="#6388BB"/>
<path fill-rule="evenodd" clip-rule="evenodd" d="M73.2584 165.821V216.897L157.659 216.897C194.184 216.897 225.867 196.162 241.578 165.821L73.2584 165.821Z" fill="#D3F1F9"/>
<path fill-rule="evenodd" clip-rule="evenodd" d="M73.1631 165.821V114.744L157.563 114.744C194.089 114.744 225.772 135.479 241.483 165.821L73.1631 165.821Z" fill="#7FCCE6"/>
<path fill-rule="evenodd" clip-rule="evenodd" d="M73.2848 165.883V202.022L182.272 202.022C208.116 202.022 230.533 187.351 241.65 165.883L73.2848 165.883Z" fill="#B7EBF9"/>
<path fill-rule="evenodd" clip-rule="evenodd" d="M72.9832 165.883V129.744L181.971 129.744C207.815 129.744 230.232 144.415 241.348 165.883L72.9832 165.883Z" fill="#A7DCEA"/>
<path fill-rule="evenodd" clip-rule="evenodd" d="M157.219 205.632C166.323 195.843 172.097 181.57 172.212 165.653H203.052C199.463 187.951 180.393 205.07 157.219 205.632Z" fill="#39537C"/>
<path fill-rule="evenodd" clip-rule="evenodd" d="M157.219 125.659C166.323 135.449 172.097 149.721 172.212 165.639H203.052C199.463 143.341 180.393 126.222 157.219 125.659Z" fill="#39537C"/>
<path d="M73.3485 237.485L153.336 237.485C153.336 237.485 156.225 239.059 156.709 240.858C157.22 242.755 155.263 245.677 155.263 245.677C155.263 245.677 100.332 289.525 96.9593 289.525C87.7387 289.525 73.3485 289.525 73.3485 289.525" stroke="url(#paint0_linear_10_201)" stroke-width="4"/>
<path d="M73.3485 94.8569L153.336 94.8569C153.336 94.8569 156.225 93.2828 156.709 91.484C157.22 89.5868 155.263 86.6654 155.263 86.6654C155.263 86.6654 100.332 42.8168 96.9593 42.8168C87.7387 42.8168 73.3485 42.8168 73.3485 42.8168" stroke="url(#paint1_linear_10_201)" stroke-width="4"/>
<defs>
<linearGradient id="paint0_linear_10_201" x1="156.709" y1="263.551" x2="73.3485" y2="263.551" gradientUnits="userSpaceOnUse">
<stop stop-color="white"/>
<stop offset="0.157439" stop-color="#F1D839"/>
<stop offset="1" stop-color="#FB982A"/>
</linearGradient>
<linearGradient id="paint1_linear_10_201" x1="156.709" y1="68.791" x2="73.3485" y2="68.791" gradientUnits="userSpaceOnUse">
<stop stop-color="white"/>
<stop offset="0.157439" stop-color="#F1D839"/>
<stop offset="1" stop-color="#FB982A"/>
</linearGradient>
</defs>
</svg>
