<svg width="35" height="36" viewBox="0 0 35 36" fill="none" xmlns="http://www.w3.org/2000/svg">
<path d="M9.45532 22.3605V13.5656C9.45532 13.5656 8.0741 13.3928 7.20162 13.5106C6.47396 13.6088 6.06084 13.7121 5.38767 14.0053C4.84085 14.2435 4.55657 14.4322 4.06843 14.7749C3.75563 14.9945 3.29887 15.3795 3.29887 15.3795L3.84855 15.9292C3.84855 15.9292 2.79231 16.4576 2.1995 16.9187C1.70812 17.3009 1.04517 18.018 1.04517 18.018C1.04517 18.018 1.7149 18.6954 2.1995 19.0624C2.79818 19.5159 3.84855 20.0518 3.84855 20.0518L3.29887 20.5466C3.29887 20.5466 3.74411 21.0101 4.06843 21.2612C4.54009 21.6262 4.83774 21.7998 5.38767 22.0307C6.05973 22.3129 6.47697 22.3917 7.20162 22.4705C8.07764 22.5656 9.45532 22.3605 9.45532 22.3605Z" fill="#FF201B" stroke="#FF201B" stroke-width="0.5"/>
<path d="M9.40036 21.3224L9.40036 14.5738C9.40036 14.5738 8.3351 14.4412 7.66221 14.5316C7.101 14.607 6.7824 14.6862 6.26321 14.9112C5.84148 15.094 5.62224 15.2387 5.24576 15.5017C5.00452 15.6702 4.65225 15.9657 4.65225 15.9657L5.07619 16.3875C5.07619 16.3875 4.26156 16.7929 3.80437 17.1467C3.4254 17.44 2.9141 17.9902 2.9141 17.9902C2.9141 17.9902 3.43062 18.51 3.80437 18.7916C4.2661 19.1396 5.07619 19.5509 5.07619 19.5509L4.65225 19.9305C4.65225 19.9305 4.99564 20.2862 5.24576 20.4788C5.60953 20.7589 5.83909 20.8921 6.26321 21.0693C6.78154 21.2858 7.10333 21.3463 7.66221 21.4067C8.33783 21.4797 9.40036 21.3224 9.40036 21.3224Z" fill="#F1B31F" stroke="#F1B31F" stroke-width="0.5"/>
<path d="M9.40036 20.3609V15.4334C9.40036 15.4334 8.84065 15.3366 8.4871 15.4026C8.19222 15.4576 8.02482 15.5155 7.75203 15.6798C7.53044 15.8132 7.41524 15.9189 7.21744 16.1109C7.09068 16.234 6.90559 16.4497 6.90559 16.4497L7.12834 16.7577C7.12834 16.7577 6.70031 17.0537 6.46009 17.312C6.26097 17.5261 5.99232 17.9279 5.99232 17.9279C5.99232 17.9279 6.26372 18.3074 6.46009 18.5131C6.7027 18.7671 7.12834 19.0674 7.12834 19.0674L6.90559 19.3446C6.90559 19.3446 7.08601 19.6043 7.21744 19.745C7.40857 19.9495 7.52918 20.0468 7.75203 20.1761C8.02437 20.3343 8.19345 20.3784 8.4871 20.4225C8.84208 20.4758 9.40036 20.3609 9.40036 20.3609Z" fill="#F7B24A" stroke="#F7B24A" stroke-width="0.5"/>
<path d="M5.39182 5.05937C5.81444 5.03277 6.71106 5.32661 6.71106 5.32661L6.71106 8.42375C6.71106 8.42375 5.93093 8.63231 5.49753 8.63231C4.96618 8.63231 4.46582 8.55511 4.29245 8.52237C4.11909 8.48963 3.50387 8.25882 3.41719 7.79761C3.33051 7.33639 2.25863 7.04538 2.25863 6.87332C2.25863 6.70126 3.24383 6.34807 3.41719 5.82097C3.52424 5.4955 4.0007 5.26869 4.34742 5.1693C4.76403 5.04989 4.87174 5.0921 5.39182 5.05937Z" fill="#FF201B" stroke="#FF201B" stroke-width="0.5"/>
<path d="M5.17194 5.49913C5.43994 5.47693 5.9415 5.58141 5.9415 5.58141V8.16526C5.9415 8.16526 5.44678 8.24754 5.17194 8.24754C4.83499 8.24754 4.56729 8.19257 4.45735 8.16526C4.34742 8.13795 3.90767 8.02767 3.8527 7.64289C3.79773 7.25811 3.08315 7.07185 3.08315 6.9283C3.08315 6.78476 3.74276 6.43359 3.8527 5.99384C3.92058 5.72231 4.23748 5.69198 4.45735 5.60906C4.72154 5.50944 4.84213 5.52644 5.17194 5.49913Z" fill="#F1B31F" stroke="#F1B31F" stroke-width="0.5"/>
<path d="M5.39181 5.88389C5.60126 5.83683 5.9415 5.88389 5.9415 5.88389V7.86275C5.9415 7.86275 5.60126 7.90982 5.39181 7.86275C5.12939 7.80378 4.8971 7.64288 4.84213 7.53294C4.78716 7.423 4.78716 7.39894 4.78716 7.31307C4.78716 7.2272 4.18251 6.98326 4.18251 6.87332C4.18251 6.76339 4.73219 6.54351 4.78716 6.43358C4.84213 6.32364 4.80549 6.2137 4.84213 6.15873C4.87877 6.10377 5.12939 5.94287 5.39181 5.88389Z" fill="#F7B24A" stroke="#F7B24A" stroke-width="0.5"/>
<path d="M9.34955 4.56465V9.18199L8.47006 8.96212V4.78452L9.34955 4.56465Z" fill="#39537C"/>
<path d="M5.9415 5.55409L5.9415 8.19257L8.47004 8.96212V4.78453L5.9415 5.55409Z" fill="#6388BB"/>
<path d="M5.38767 27.2666C5.81029 27.24 6.70691 27.5338 6.70691 27.5338L6.70691 30.631C6.70691 30.631 5.92678 30.8395 5.49338 30.8395C4.96203 30.8395 4.46166 30.7623 4.2883 30.7296C4.11494 30.6968 3.49972 30.466 3.41304 30.0048C3.32636 29.5436 2.25448 29.2526 2.25448 29.0805C2.25448 28.9085 3.23968 28.5553 3.41304 28.0282C3.52008 27.7027 3.99655 27.4759 4.34327 27.3765C4.75987 27.2571 4.86758 27.2993 5.38767 27.2666Z" fill="#FF201B" stroke="#FF201B" stroke-width="0.5"/>
<path d="M5.16779 27.7063C5.43579 27.6841 5.93735 27.7886 5.93735 27.7886V30.3725C5.93735 30.3725 5.44263 30.4548 5.16779 30.4548C4.83084 30.4548 4.56314 30.3998 4.4532 30.3725C4.34327 30.3452 3.90352 30.2349 3.84855 29.8501C3.79358 29.4653 3.07899 29.2791 3.07899 29.1355C3.07899 28.992 3.73861 28.6408 3.84855 28.2011C3.91643 27.9295 4.23333 27.8992 4.4532 27.8163C4.71739 27.7167 4.83798 27.7337 5.16779 27.7063Z" fill="#F1B31F" stroke="#F1B31F" stroke-width="0.5"/>
<path d="M5.38766 28.0911C5.59711 28.044 5.93735 28.0911 5.93735 28.0911V30.07C5.93735 30.07 5.59711 30.117 5.38766 30.07C5.12523 30.011 4.89295 29.8501 4.83798 29.7402C4.78301 29.6302 4.78301 29.6062 4.78301 29.5203C4.78301 29.4344 4.17836 29.1905 4.17836 29.0805C4.17836 28.9706 4.72804 28.7507 4.78301 28.6408C4.83798 28.5309 4.80134 28.4209 4.83798 28.3659C4.87462 28.311 5.12523 28.1501 5.38766 28.0911Z" fill="#F7B24A" stroke="#F7B24A" stroke-width="0.5"/>
<path d="M9.3454 26.7719V31.3892L8.4659 31.1693V26.9917L9.3454 26.7719Z" fill="#39537C"/>
<path d="M5.93735 27.7613L5.93735 30.3998L8.46589 31.1693V26.9917L5.93735 27.7613Z" fill="#6388BB"/>
<path fill-rule="evenodd" clip-rule="evenodd" d="M34.3643 17.9476C34.3643 17.044 33.9612 16.1405 33.1551 15.5407L14.0538 1.32818C12.0747 -0.144413 9.26297 1.26815 9.26297 3.73502V17.9476L34.3643 17.9476Z" fill="#4C6DA0"/>
<path fill-rule="evenodd" clip-rule="evenodd" d="M34.3755 17.9476C34.3755 18.8511 33.9724 19.7546 33.1663 20.3544L14.065 34.567C12.0859 36.0396 9.2742 34.627 9.2742 32.1601L9.2742 17.9476H34.3755Z" fill="#6388BB"/>
<path fill-rule="evenodd" clip-rule="evenodd" d="M9.27048 17.9369L9.27048 23.7636L18.8986 23.7636C23.0654 23.7636 26.6796 21.3982 28.4719 17.9369L9.27048 17.9369Z" fill="#D3F1F9"/>
<path fill-rule="evenodd" clip-rule="evenodd" d="M9.25961 17.9369L9.25961 12.1103L18.8877 12.1103C23.0545 12.1103 26.6688 14.4757 28.4611 17.9369L9.25961 17.9369Z" fill="#7FCCE6"/>
<path fill-rule="evenodd" clip-rule="evenodd" d="M9.27347 17.9441V22.0667L21.7065 22.0667C24.6546 22.0667 27.2119 20.3931 28.48 17.9441L9.27347 17.9441Z" fill="#B7EBF9"/>
<path fill-rule="evenodd" clip-rule="evenodd" d="M9.23906 17.9441V13.8215L21.672 13.8215C24.6202 13.8215 27.1775 15.4951 28.4456 17.9441L9.23906 17.9441Z" fill="#A7DCEA"/>
<path fill-rule="evenodd" clip-rule="evenodd" d="M18.8484 22.4785C19.8869 21.3617 20.5457 19.7336 20.5587 17.9178H24.0769C23.6675 20.4614 21.4921 22.4143 18.8484 22.4785Z" fill="#39537C"/>
<path fill-rule="evenodd" clip-rule="evenodd" d="M18.8484 13.3554C19.8869 14.4722 20.5457 16.1004 20.5587 17.9162L24.0676 17.9162L24.0769 17.9162C23.6675 15.3725 21.4921 13.4196 18.8484 13.3554Z" fill="#39537C"/>
<path d="M9.28074 26.1122H18.4055C18.4055 26.1122 18.735 26.2918 18.7903 26.497C18.8485 26.7134 18.6254 27.0467 18.6254 27.0467C18.6254 27.0467 12.359 32.0488 11.9742 32.0488C10.9223 32.0488 9.28074 32.0488 9.28074 32.0488" stroke="#D9D2D2"/>
<path d="M9.28074 9.84161H18.4055C18.4055 9.84161 18.735 9.66204 18.7903 9.45684C18.8485 9.24042 18.6254 8.90715 18.6254 8.90715C18.6254 8.90715 12.359 3.90503 11.9742 3.90503C10.9223 3.90503 9.28074 3.90503 9.28074 3.90503" stroke="#D9D2D2"/>
</svg>
