<svg width="21" height="23" viewBox="0 0 21 23" fill="none" xmlns="http://www.w3.org/2000/svg">
<path d="M8.48192 4.26004C9.48063 2.89415 11.5194 2.89415 12.5181 4.26004L13.852 6.08433C14.1605 6.50634 14.5936 6.82099 15.0903 6.98404L17.2375 7.68891C18.8452 8.21666 19.4752 10.1556 18.4848 11.5275L17.1619 13.3599C16.856 13.7837 16.6905 14.2929 16.6889 14.8156L16.6821 17.0756C16.677 18.7676 15.0276 19.966 13.4168 19.448L11.2653 18.7561C10.7677 18.5961 10.2323 18.5961 9.73466 18.7561L7.58323 19.448C5.9724 19.966 4.32302 18.7676 4.3179 17.0756L4.31106 14.8156C4.30947 14.2929 4.14405 13.7837 3.83805 13.3599L2.51524 11.5275C1.52482 10.1556 2.15482 8.21666 3.76248 7.68891L5.90968 6.98404C6.40638 6.82099 6.83947 6.50634 7.14803 6.08433L8.48192 4.26004Z" fill="#722F2F"/>
<path d="M17.5941 10.0153C17.501 10.2066 16.8578 9.64093 16.3838 9.40506C15.7447 9.08698 14.6421 8.82427 14.7411 8.60204C14.84 8.37981 15.6035 8.62375 16.5998 8.88663C17.596 9.14951 17.6872 9.82404 17.5941 10.0153Z" fill="white" fill-opacity="0.54"/>
<path d="M6.22069 17.5058C6.08482 17.3168 6.80937 17.1764 7.09165 17.0343C7.47233 16.8428 7.75504 16.4327 7.91467 16.6464C8.0743 16.86 7.95532 17.3406 7.32324 17.6374C6.69116 17.9342 6.35656 17.6947 6.22069 17.5058Z" fill="white" fill-opacity="0.54"/>
<path d="M8.48192 2.76004C9.48063 1.39415 11.5194 1.39415 12.5181 2.76004L13.852 4.58433C14.1605 5.00634 14.5936 5.32099 15.0903 5.48404L17.2375 6.18891C18.8452 6.71666 19.4752 8.65561 18.4848 10.0275L17.1619 11.8599C16.856 12.2837 16.6905 12.7929 16.6889 13.3156L16.6821 15.5756C16.677 17.2676 15.0276 18.466 13.4168 17.948L11.2653 17.2561C10.7677 17.0961 10.2323 17.0961 9.73466 17.2561L7.58323 17.948C5.9724 18.466 4.32302 17.2676 4.3179 15.5756L4.31106 13.3156C4.30947 12.7929 4.14405 12.2837 3.83805 11.8599L2.51524 10.0275C1.52482 8.65562 2.15482 6.71666 3.76248 6.18891L5.90968 5.48404C6.40638 5.32099 6.83947 5.00634 7.14803 4.58433L8.48192 2.76004Z" fill="#F7B24A"/>
<path d="M17.5941 8.51533C17.501 8.70662 16.8578 8.14093 16.3838 7.90506C15.7447 7.58698 14.6421 7.32427 14.7411 7.10204C14.84 6.87981 15.6035 7.12375 16.5998 7.38663C17.596 7.64951 17.6872 8.32404 17.5941 8.51533Z" fill="white" fill-opacity="0.54"/>
<path d="M6.22069 16.0058C6.08482 15.8168 6.80937 15.6764 7.09165 15.5343C7.47233 15.3428 7.75504 14.9327 7.91467 15.1464C8.0743 15.36 7.95532 15.8406 7.32324 16.1374C6.69116 16.4342 6.35656 16.1947 6.22069 16.0058Z" fill="white" fill-opacity="0.54"/>
</svg>
